<svg width="45" height="38" viewBox="0 0 45 38" fill="none" xmlns="http://www.w3.org/2000/svg">
<g filter="url(#filter0_i_127_7)">
<path d="M44.9824 2.90041C44.9827 2.54715 44.8893 2.20013 44.7118 1.8947C44.5342 1.58927 44.279 1.33634 43.9719 1.16167C43.6648 0.987004 43.317 0.896832 42.9637 0.900341C42.6105 0.90385 42.2645 1.00092 41.9609 1.18165C40.7903 1.87842 39.53 2.41202 38.2149 2.76765C36.3369 1.15612 33.9416 0.274259 31.4669 0.283272C28.7521 0.286397 26.1447 1.34446 24.1954 3.23403C22.246 5.12361 21.1073 7.69679 21.0197 10.4102C15.6676 9.55675 10.8169 6.76328 7.39258 2.56251C7.18625 2.31218 6.92275 2.11514 6.6243 1.988C6.32585 1.86087 6.00121 1.80737 5.67774 1.83201C5.35446 1.85863 5.04253 1.9636 4.76893 2.13783C4.49532 2.31207 4.26827 2.55033 4.10742 2.83201C3.28247 4.27164 2.80868 5.88553 2.72452 7.54263C2.64036 9.19972 2.9482 10.8533 3.62304 12.3691L3.61914 12.373C3.31583 12.5598 3.06553 12.8213 2.89215 13.1325C2.71878 13.4437 2.62814 13.7942 2.6289 14.1504C2.62523 14.4442 2.64286 14.738 2.68164 15.0293C2.88592 17.5458 4.00121 19.9014 5.81836 21.6543C5.69509 21.8891 5.61985 22.1462 5.59705 22.4104C5.57424 22.6747 5.60433 22.9408 5.68554 23.1933C6.47777 25.6616 8.16254 27.7455 10.4102 29.0371C8.12664 29.9201 5.661 30.228 3.23046 29.9336C2.78061 29.8771 2.32492 29.9752 1.93816 30.2118C1.55139 30.4484 1.25652 30.8094 1.10189 31.2356C0.947269 31.6618 0.942083 32.1279 1.08718 32.5574C1.23228 32.987 1.51906 33.3544 1.90046 33.5996C6.08065 36.2919 10.9478 37.7233 15.92 37.7227C21.5585 37.7861 27.0599 35.9843 31.5685 32.5976C36.077 29.2108 39.3399 24.429 40.8496 18.996C41.5557 16.6293 41.9163 14.173 41.92 11.7031C41.92 11.5723 41.92 11.4375 41.918 11.3028C42.9622 10.1766 43.7712 8.85336 44.2974 7.41055C44.8236 5.96773 45.0565 4.4344 44.9824 2.90041ZM38.3691 9.32423C38.0388 9.71492 37.8716 10.2178 37.9023 10.7285C37.9219 11.0585 37.9199 11.3905 37.9199 11.7031C37.9158 13.7902 37.6099 15.8657 37.0117 17.8653C35.7787 22.488 33.03 26.5633 29.2059 29.4384C25.3817 32.3136 20.7034 33.8222 15.92 33.7227C14.2018 33.7232 12.4894 33.5213 10.8184 33.1211C12.9493 32.4344 14.9416 31.3757 16.7032 29.9942C17.0277 29.7387 17.2651 29.3891 17.383 28.9933C17.5008 28.5975 17.4934 28.175 17.3616 27.7836C17.2297 27.3923 16.9801 27.0513 16.6468 26.8075C16.3135 26.5637 15.9129 26.429 15.5 26.4219C13.8377 26.396 12.2503 25.7259 11.0723 24.5528C11.3711 24.4961 11.668 24.4258 11.9629 24.3418C12.3949 24.2188 12.773 23.9541 13.0362 23.5901C13.2995 23.2261 13.4325 22.7842 13.414 22.3354C13.3956 21.8866 13.2266 21.457 12.9343 21.116C12.642 20.7749 12.2434 20.5421 11.8027 20.4551C10.8378 20.2645 9.92983 19.854 9.14937 19.2555C8.36891 18.6569 7.73699 17.8864 7.30274 17.0039C7.6642 17.0532 8.02796 17.0839 8.39258 17.0957C8.82575 17.1023 9.24977 16.9709 9.60333 16.7205C9.9569 16.4702 10.2217 16.1139 10.3594 15.7031C10.4913 15.2887 10.4845 14.8425 10.34 14.4322C10.1955 14.0219 9.92119 13.67 9.5586 13.4297C8.6789 12.8436 7.95829 12.0485 7.46131 11.1156C6.96434 10.1827 6.70652 9.14105 6.71094 8.08401C6.71094 7.95121 6.71484 7.81839 6.72266 7.68753C11.2052 11.868 17.0193 14.3324 23.1407 14.6465C23.4497 14.6587 23.7574 14.6005 24.0406 14.4763C24.3238 14.3521 24.5751 14.1652 24.7754 13.9297C24.9738 13.6919 25.1143 13.4113 25.1857 13.11C25.2572 12.8087 25.2578 12.495 25.1874 12.1934C25.0731 11.7161 25.0147 11.2271 25.0136 10.7364C25.0154 9.02542 25.6959 7.38509 26.9057 6.17528C28.1155 4.96548 29.7559 4.28502 31.4668 4.28321C32.3471 4.28085 33.2183 4.46101 34.0254 4.8123C34.8325 5.1636 35.5581 5.67841 36.1562 6.32423C36.3869 6.5724 36.6772 6.75742 36.9996 6.8617C37.322 6.96598 37.6657 6.98606 37.998 6.92001C38.8196 6.76013 39.6294 6.54479 40.4218 6.27549C39.8813 7.38144 39.1905 8.40738 38.3691 9.32423Z" fill="#FF6699"/>
</g>
<defs>
<filter id="filter0_i_127_7" x="0.982018" y="0.283203" width="44.0138" height="41.4411" filterUnits="userSpaceOnUse" color-interpolation-filters="sRGB">
<feFlood flood-opacity="0" result="BackgroundImageFix"/>
<feBlend mode="normal" in="SourceGraphic" in2="BackgroundImageFix" result="shape"/>
<feColorMatrix in="SourceAlpha" type="matrix" values="0 0 0 0 0 0 0 0 0 0 0 0 0 0 0 0 0 0 127 0" result="hardAlpha"/>
<feOffset dy="4"/>
<feGaussianBlur stdDeviation="2"/>
<feComposite in2="hardAlpha" operator="arithmetic" k2="-1" k3="1"/>
<feColorMatrix type="matrix" values="0 0 0 0 0 0 0 0 0 0 0 0 0 0 0 0 0 0 0.25 0"/>
<feBlend mode="normal" in2="shape" result="effect1_innerShadow_127_7"/>
</filter>
</defs>
</svg>
