<svg width="77" height="47" viewBox="0 0 77 47" fill="none" xmlns="http://www.w3.org/2000/svg">
<g filter="url(#filter0_i_116_10)">
<path d="M74.8394 2.18795C73.4708 0.786581 71.6195 0 69.6898 0C67.76 0 65.9087 0.786581 64.5402 2.18795L38.3174 28.8233L12.4598 2.18795C11.0913 0.786581 9.23994 0 7.31023 0C5.38051 0 3.5292 0.786581 2.16063 2.18795C1.476 2.88742 0.932591 3.71959 0.561757 4.63647C0.190922 5.55335 0 6.5368 0 7.53007C0 8.52334 0.190922 9.50678 0.561757 10.4237C0.932591 11.3405 1.476 12.1727 2.16063 12.8722L33.1313 44.7744C33.8103 45.4796 34.6182 46.0394 35.5083 46.4213C36.3984 46.8033 37.3531 47 38.3174 47C39.2817 47 40.2364 46.8033 41.1265 46.4213C42.0166 46.0394 42.8245 45.4796 43.5035 44.7744L74.8394 12.8722C75.524 12.1727 76.0674 11.3405 76.4382 10.4237C76.8091 9.50678 77 8.52334 77 7.53007C77 6.5368 76.8091 5.55335 76.4382 4.63647C76.0674 3.71959 75.524 2.88742 74.8394 2.18795Z" fill="#FF6699"/>
</g>
<defs>
<filter id="filter0_i_116_10" x="0" y="0" width="77" height="51" filterUnits="userSpaceOnUse" color-interpolation-filters="sRGB">
<feFlood flood-opacity="0" result="BackgroundImageFix"/>
<feBlend mode="normal" in="SourceGraphic" in2="BackgroundImageFix" result="shape"/>
<feColorMatrix in="SourceAlpha" type="matrix" values="0 0 0 0 0 0 0 0 0 0 0 0 0 0 0 0 0 0 127 0" result="hardAlpha"/>
<feOffset dy="4"/>
<feGaussianBlur stdDeviation="2"/>
<feComposite in2="hardAlpha" operator="arithmetic" k2="-1" k3="1"/>
<feColorMatrix type="matrix" values="0 0 0 0 0 0 0 0 0 0 0 0 0 0 0 0 0 0 0.25 0"/>
<feBlend mode="normal" in2="shape" result="effect1_innerShadow_116_10"/>
</filter>
</defs>
</svg>
