<svg width="70" height="72" viewBox="0 0 70 72" fill="none" xmlns="http://www.w3.org/2000/svg">
<g filter="url(#filter0_i_15_122)">
<path d="M66.111 21.6602L42.7778 2.74687C40.6389 0.977947 37.8698 0 35.0001 0C32.1304 0 29.3614 0.977947 27.2224 2.74687L3.88923 21.6602C2.654 22.6817 1.6683 23.9347 0.997752 25.3359C0.327203 26.7371 -0.0128043 28.2543 0.000368641 29.7865V61.2129C0.000368641 64.0738 1.22952 66.8176 3.41743 68.8405C5.60534 70.8635 8.57278 72 11.667 72H58.3333C61.4275 72 64.3949 70.8635 66.5828 68.8405C68.7707 66.8176 69.9999 64.0738 69.9999 61.2129V29.7506C70.0075 28.2244 69.6648 26.7141 68.9945 25.3195C68.3241 23.9249 67.3413 22.6777 66.111 21.6602ZM42.7778 64.8086H27.2224V46.8301C27.2224 45.8765 27.6321 44.9619 28.3614 44.2876C29.0907 43.6133 30.0799 43.2344 31.1113 43.2344H38.889C39.9204 43.2344 40.9095 43.6133 41.6388 44.2876C42.3681 44.9619 42.7778 45.8765 42.7778 46.8301V64.8086ZM62.2222 61.2129C62.2222 62.1665 61.8124 63.0811 61.0831 63.7555C60.3538 64.4298 59.3647 64.8086 58.3333 64.8086H50.5556V46.8301C50.5556 43.9692 49.3264 41.2255 47.1385 39.2025C44.9506 37.1795 41.9832 36.043 38.889 36.043H31.1113C28.0171 36.043 25.0496 37.1795 22.8617 39.2025C20.6738 41.2255 19.4447 43.9692 19.4447 46.8301V64.8086H11.667C10.6356 64.8086 9.64642 64.4298 8.91711 63.7555C8.18781 63.0811 7.77809 62.1665 7.77809 61.2129V29.7506C7.77879 29.24 7.89706 28.7355 8.12505 28.2705C8.35303 27.8055 8.68549 27.3907 9.10031 27.0538L32.4335 8.17637C33.1431 7.59991 34.0555 7.282 35.0001 7.282C35.9448 7.282 36.8571 7.59991 37.5668 8.17637L60.8999 27.0538C61.3148 27.3907 61.6472 27.8055 61.8752 28.2705C62.1032 28.7355 62.2215 29.24 62.2222 29.7506V61.2129Z" fill="#EF4A81"/>
</g>
<defs>
<filter id="filter0_i_15_122" x="0" y="0" width="70" height="76" filterUnits="userSpaceOnUse" color-interpolation-filters="sRGB">
<feFlood flood-opacity="0" result="BackgroundImageFix"/>
<feBlend mode="normal" in="SourceGraphic" in2="BackgroundImageFix" result="shape"/>
<feColorMatrix in="SourceAlpha" type="matrix" values="0 0 0 0 0 0 0 0 0 0 0 0 0 0 0 0 0 0 127 0" result="hardAlpha"/>
<feOffset dy="4"/>
<feGaussianBlur stdDeviation="2"/>
<feComposite in2="hardAlpha" operator="arithmetic" k2="-1" k3="1"/>
<feColorMatrix type="matrix" values="0 0 0 0 0 0 0 0 0 0 0 0 0 0 0 0 0 0 0.25 0"/>
<feBlend mode="normal" in2="shape" result="effect1_innerShadow_15_122"/>
</filter>
</defs>
</svg>
