<svg width="77" height="76" viewBox="0 0 77 76" fill="none" xmlns="http://www.w3.org/2000/svg">
<path d="M72.1875 33.25H43.3125V4.75C43.3125 3.49022 42.8055 2.28204 41.903 1.39124C41.0004 0.500446 39.7764 0 38.5 0C37.2236 0 35.9996 0.500446 35.097 1.39124C34.1945 2.28204 33.6875 3.49022 33.6875 4.75V33.25H4.8125C3.53615 33.25 2.31207 33.7504 1.40955 34.6412C0.507031 35.532 0 36.7402 0 38C0 39.2598 0.507031 40.468 1.40955 41.3588C2.31207 42.2496 3.53615 42.75 4.8125 42.75H33.6875V71.25C33.6875 72.5098 34.1945 73.718 35.097 74.6088C35.9996 75.4996 37.2236 76 38.5 76C39.7764 76 41.0004 75.4996 41.903 74.6088C42.8055 73.718 43.3125 72.5098 43.3125 71.25V42.75H72.1875C73.4639 42.75 74.6879 42.2496 75.5905 41.3588C76.493 40.468 77 39.2598 77 38C77 36.7402 76.493 35.532 75.5905 34.6412C74.6879 33.7504 73.4639 33.25 72.1875 33.25Z" fill="#FF6699"/>
</svg>
